{
    "asset" : {
        "generator" : "Khronos glTF Blender I/O v1.6.16",
        "version" : "2.0"
    },
    "scene" : 0,
    "scenes" : [
        {
            "name" : "E-45_GLSL",
            "nodes" : [
                5
            ]
        }
    ],
    "nodes" : [
        {
            "mesh" : 0,
            "name" : "Cube.004",
            "rotation" : [
                0.8238191604614258,
                -5.070977593391035e-08,
                -5.0705502019354753e-08,
                0.5668528079986572
            ],
            "translation" : [
                2.1387336346379016e-12,
                -1.9957972305917338e-06,
                -4.3585896492004395e-07
            ]
        },
        {
            "children" : [
                0
            ],
            "name" : "Glass",
            "rotation" : [
                0.9833535552024841,
                7.160185191423807e-07,
                -4.263079063093755e-06,
                0.18170252442359924
            ],
            "scale" : [
                1,
                1,
                1.0000005960464478
            ],
            "translation" : [
                -1.0783260222524405e-05,
                1.7482892274856567,
                -1.2455201148986816
            ]
        },
        {
            "mesh" : 1,
            "name" : "Cube.021",
            "rotation" : [
                -0.7071068286895752,
                3.0654816782771377e-06,
                3.0654814509034622e-06,
                0.7071068286895752
            ],
            "translation" : [
                2.428459993097931e-06,
                1.6468384203600688,
                0.28008344769477844
            ]
        },
        {
            "children" : [
                1,
                2
            ],
            "name" : "Ship",
            "rotation" : [
                0.7071068286895752,
                -3.0654814509034622e-06,
                -3.0654814509034622e-06,
                0.7071068286895752
            ],
            "scale" : [
                1,
                0.9999998807907104,
                0.9999998807907104
            ],
            "translation" : [
                9.30966566963362e-17,
                0.28008344769477844,
                -1.6468380689620972
            ]
        },
        {
            "children" : [
                3
            ],
            "name" : "root"
        },
        {
            "children" : [
                4
            ],
            "name" : "Armature"
        }
    ],
    "animations" : [
        {
            "channels" : [
                {
                    "sampler" : 0,
                    "target" : {
                        "node" : 4,
                        "path" : "translation"
                    }
                },
                {
                    "sampler" : 1,
                    "target" : {
                        "node" : 4,
                        "path" : "rotation"
                    }
                },
                {
                    "sampler" : 2,
                    "target" : {
                        "node" : 4,
                        "path" : "scale"
                    }
                },
                {
                    "sampler" : 3,
                    "target" : {
                        "node" : 3,
                        "path" : "translation"
                    }
                },
                {
                    "sampler" : 4,
                    "target" : {
                        "node" : 3,
                        "path" : "rotation"
                    }
                },
                {
                    "sampler" : 5,
                    "target" : {
                        "node" : 3,
                        "path" : "scale"
                    }
                },
                {
                    "sampler" : 6,
                    "target" : {
                        "node" : 1,
                        "path" : "translation"
                    }
                },
                {
                    "sampler" : 7,
                    "target" : {
                        "node" : 1,
                        "path" : "rotation"
                    }
                },
                {
                    "sampler" : 8,
                    "target" : {
                        "node" : 1,
                        "path" : "scale"
                    }
                }
            ],
            "name" : "ArmatureAction",
            "samplers" : [
                {
                    "input" : 9,
                    "interpolation" : "LINEAR",
                    "output" : 10
                },
                {
                    "input" : 9,
                    "interpolation" : "LINEAR",
                    "output" : 11
                },
                {
                    "input" : 9,
                    "interpolation" : "LINEAR",
                    "output" : 12
                },
                {
                    "input" : 9,
                    "interpolation" : "LINEAR",
                    "output" : 13
                },
                {
                    "input" : 9,
                    "interpolation" : "LINEAR",
                    "output" : 14
                },
                {
                    "input" : 9,
                    "interpolation" : "LINEAR",
                    "output" : 15
                },
                {
                    "input" : 9,
                    "interpolation" : "LINEAR",
                    "output" : 16
                },
                {
                    "input" : 9,
                    "interpolation" : "LINEAR",
                    "output" : 17
                },
                {
                    "input" : 9,
                    "interpolation" : "LINEAR",
                    "output" : 18
                }
            ]
        }
    ],
    "materials" : [
        {
            "doubleSided" : true,
            "name" : "Material.004",
            "pbrMetallicRoughness" : {
                "baseColorFactor" : [
                    0.800000011920929,
                    0.800000011920929,
                    0.800000011920929,
                    1
                ],
                "metallicFactor" : 0,
                "roughnessFactor" : 0.5
            }
        },
        {
            "doubleSided" : true,
            "name" : "ship",
            "pbrMetallicRoughness" : {
                "baseColorFactor" : [
                    0.800000011920929,
                    0.800000011920929,
                    0.800000011920929,
                    1
                ],
                "metallicFactor" : 0,
                "roughnessFactor" : 0.5
            }
        }
    ],
    "meshes" : [
        {
            "name" : "Cube.001",
            "primitives" : [
                {
                    "attributes" : {
                        "POSITION" : 0,
                        "NORMAL" : 1,
                        "TEXCOORD_0" : 2
                    },
                    "indices" : 3,
                    "material" : 0
                }
            ]
        },
        {
            "name" : "Cube.048",
            "primitives" : [
                {
                    "attributes" : {
                        "POSITION" : 4,
                        "NORMAL" : 5,
                        "TEXCOORD_0" : 6,
                        "COLOR_0" : 7
                    },
                    "indices" : 8,
                    "material" : 1
                }
            ]
        }
    ],
    "accessors" : [
        {
            "bufferView" : 0,
            "componentType" : 5126,
            "count" : 172,
            "max" : [
                1.6781243061814166e-11,
                0.007775474339723587,
                0.00011114031076431274
            ],
            "min" : [
                -0.559136152267456,
                -1.4653524160385132,
                -3.05983304977417
            ],
            "type" : "VEC3"
        },
        {
            "bufferView" : 1,
            "componentType" : 5126,
            "count" : 172,
            "type" : "VEC3"
        },
        {
            "bufferView" : 2,
            "componentType" : 5126,
            "count" : 172,
            "type" : "VEC2"
        },
        {
            "bufferView" : 3,
            "componentType" : 5123,
            "count" : 558,
            "type" : "SCALAR"
        },
        {
            "bufferView" : 4,
            "componentType" : 5126,
            "count" : 1395,
            "max" : [
                4.855774022871628e-07,
                2.8554515838623047,
                3.211289405822754
            ],
            "min" : [
                -0.9731524586677551,
                -1.3556362390518188,
                -2.9461159706115723
            ],
            "type" : "VEC3"
        },
        {
            "bufferView" : 5,
            "componentType" : 5126,
            "count" : 1395,
            "type" : "VEC3"
        },
        {
            "bufferView" : 6,
            "componentType" : 5126,
            "count" : 1395,
            "type" : "VEC2"
        },
        {
            "bufferView" : 7,
            "componentType" : 5123,
            "count" : 1395,
            "normalized" : true,
            "type" : "VEC4"
        },
        {
            "bufferView" : 8,
            "componentType" : 5123,
            "count" : 5427,
            "type" : "SCALAR"
        },
        {
            "bufferView" : 9,
            "componentType" : 5126,
            "count" : 21,
            "max" : [
                0.8333333333333334
            ],
            "min" : [
                0
            ],
            "type" : "SCALAR"
        },
        {
            "bufferView" : 10,
            "componentType" : 5126,
            "count" : 21,
            "type" : "VEC3"
        },
        {
            "bufferView" : 11,
            "componentType" : 5126,
            "count" : 21,
            "type" : "VEC4"
        },
        {
            "bufferView" : 12,
            "componentType" : 5126,
            "count" : 21,
            "type" : "VEC3"
        },
        {
            "bufferView" : 13,
            "componentType" : 5126,
            "count" : 21,
            "type" : "VEC3"
        },
        {
            "bufferView" : 14,
            "componentType" : 5126,
            "count" : 21,
            "type" : "VEC4"
        },
        {
            "bufferView" : 15,
            "componentType" : 5126,
            "count" : 21,
            "type" : "VEC3"
        },
        {
            "bufferView" : 16,
            "componentType" : 5126,
            "count" : 21,
            "type" : "VEC3"
        },
        {
            "bufferView" : 17,
            "componentType" : 5126,
            "count" : 21,
            "type" : "VEC4"
        },
        {
            "bufferView" : 18,
            "componentType" : 5126,
            "count" : 21,
            "type" : "VEC3"
        }
    ],
    "bufferViews" : [
        {
            "buffer" : 0,
            "byteLength" : 2064,
            "byteOffset" : 0
        },
        {
            "buffer" : 0,
            "byteLength" : 2064,
            "byteOffset" : 2064
        },
        {
            "buffer" : 0,
            "byteLength" : 1376,
            "byteOffset" : 4128
        },
        {
            "buffer" : 0,
            "byteLength" : 1116,
            "byteOffset" : 5504
        },
        {
            "buffer" : 0,
            "byteLength" : 16740,
            "byteOffset" : 6620
        },
        {
            "buffer" : 0,
            "byteLength" : 16740,
            "byteOffset" : 23360
        },
        {
            "buffer" : 0,
            "byteLength" : 11160,
            "byteOffset" : 40100
        },
        {
            "buffer" : 0,
            "byteLength" : 11160,
            "byteOffset" : 51260
        },
        {
            "buffer" : 0,
            "byteLength" : 10854,
            "byteOffset" : 62420
        },
        {
            "buffer" : 0,
            "byteLength" : 84,
            "byteOffset" : 73276
        },
        {
            "buffer" : 0,
            "byteLength" : 252,
            "byteOffset" : 73360
        },
        {
            "buffer" : 0,
            "byteLength" : 336,
            "byteOffset" : 73612
        },
        {
            "buffer" : 0,
            "byteLength" : 252,
            "byteOffset" : 73948
        },
        {
            "buffer" : 0,
            "byteLength" : 252,
            "byteOffset" : 74200
        },
        {
            "buffer" : 0,
            "byteLength" : 336,
            "byteOffset" : 74452
        },
        {
            "buffer" : 0,
            "byteLength" : 252,
            "byteOffset" : 74788
        },
        {
            "buffer" : 0,
            "byteLength" : 252,
            "byteOffset" : 75040
        },
        {
            "buffer" : 0,
            "byteLength" : 336,
            "byteOffset" : 75292
        },
        {
            "buffer" : 0,
            "byteLength" : 252,
            "byteOffset" : 75628
        }
    ],
    "buffers" : [
        {
            "byteLength" : 75880,
            "uri" : "data:application/octet-stream;base64,"
        }
    ]
}
